<svg width="890" height="158" viewBox="0 0 890 158" fill="none" xmlns="http://www.w3.org/2000/svg">
<path fill-rule="evenodd" clip-rule="evenodd" d="M805.864 0.85C805.397 1.318 801.022 13.7475 796.142 28.471C789.344 48.983 786.956 55.5935 785.926 56.746L784.583 58.25L755.559 58.5C729.585 58.7235 726.449 58.836 725.719 59.5665C725.085 60.201 725.022 60.607 725.44 61.387C725.735 61.9385 727.388 63.493 729.113 64.8415C730.838 66.1895 734.05 68.5125 736.25 70.003C738.45 71.4935 741.263 73.538 742.5 74.5455C743.737 75.5535 746.14 77.3615 747.838 78.564C749.536 79.7665 753.699 82.7275 757.088 85.1445C760.477 87.562 765.106 90.8915 767.375 92.5435C769.643 94.196 771.837 96.201 772.25 96.999C772.663 97.797 773 98.968 773 99.6C773 100.232 772.185 103.338 771.187 106.5C770.189 109.662 768.182 115.85 766.727 120.25C765.272 124.65 763.926 129.038 763.734 130C763.542 130.962 762.65 134 761.75 136.75C760.85 139.5 759.286 144.275 758.274 147.362C757.262 150.448 756.414 153.676 756.39 154.535C756.365 155.393 756.641 156.278 757.002 156.501C757.364 156.724 758.017 156.772 758.455 156.607C758.892 156.441 760.712 155.357 762.5 154.197C764.288 153.037 768.164 150.325 771.115 148.169C774.066 146.014 778.453 142.843 780.865 141.124C783.277 139.404 787.275 136.501 789.75 134.673C792.225 132.845 796.831 129.583 799.986 127.424C804.539 124.309 806.094 123.5 807.526 123.5C808.907 123.5 810.378 124.208 813.791 126.518C816.243 128.179 820.725 131.313 823.75 133.484C826.775 135.654 830.825 138.592 832.75 140.012C834.675 141.432 838.612 144.262 841.5 146.3C844.388 148.338 848.569 151.25 850.792 152.772C853.014 154.294 855.458 155.587 856.221 155.645C857.044 155.707 857.824 155.421 858.135 154.942C858.535 154.328 857.909 151.811 855.526 144.442C853.803 139.112 850.409 128.787 847.984 121.5C845.558 114.213 843.22 106.717 842.787 104.844C842.354 102.97 842 100.766 842 99.944C842 99.1225 842.316 97.8405 842.701 97.0955C843.086 96.35 844.493 94.9705 845.826 94.0295C847.159 93.0885 849.07 91.594 850.071 90.7085C851.073 89.8235 853.098 88.295 854.571 87.312C856.045 86.329 859.275 84.076 861.75 82.305C864.225 80.534 867.888 77.885 869.891 76.4175C871.893 74.9505 874.481 72.9875 875.641 72.056C876.801 71.124 880.039 68.8245 882.836 66.9455C885.633 65.067 888.277 63.023 888.711 62.4035C889.145 61.784 889.5 60.872 889.5 60.3765C889.5 59.869 888.94 59.262 888.218 58.9875C887.44 58.692 875.921 58.5 858.943 58.5C835.218 58.5 830.733 58.3875 829.521 57.7605C828.587 57.278 827.824 56.28 827.323 54.8855C826.9 53.711 826.184 51.407 825.731 49.765C825.279 48.1235 824.498 45.9765 823.997 44.994C823.496 44.0115 820.012 33.992 816.256 22.729C812.004 9.9805 809.03 1.8255 808.376 1.125C807.798 0.5065 807.188 0 807.02 0C806.852 0 806.332 0.3825 805.864 0.85ZM261.293 1.625C260.891 2.2435 256.59 14.675 251.736 29.25C246.881 43.825 242.473 56.4615 241.941 57.331C241.408 58.2 240.271 59.1565 239.412 59.456C238.362 59.8215 229.123 60 211.208 60C195.107 60 184.058 60.193 183.283 60.4875C182.556 60.764 182 61.3685 182 61.8835C182 62.383 182.957 63.7125 184.125 64.8375C185.293 65.9625 188.102 68.145 190.366 69.688C192.63 71.2305 197.13 74.459 200.366 76.862C203.602 79.265 208.5 82.8245 211.25 84.7725C214 86.72 218.66 90.0525 221.605 92.1785C224.551 94.304 227.42 96.6265 227.98 97.339C228.541 98.052 229 99.126 229 99.7265C229 100.327 226.968 106.99 224.485 114.534C222.002 122.078 218.165 133.728 215.96 140.423C212.815 149.97 211.982 153.098 212.1 154.919C212.216 156.72 212.46 157.281 213.184 157.419C213.702 157.517 215.707 156.524 217.684 155.191C219.646 153.869 222.375 151.85 223.75 150.704C225.125 149.558 227.942 147.521 230.009 146.178C232.077 144.834 235.002 142.758 236.509 141.563C238.017 140.369 241.275 137.966 243.75 136.223C246.225 134.48 250.941 131.213 254.229 128.964C257.518 126.715 260.83 124.658 261.59 124.394C262.51 124.073 263.516 124.094 264.61 124.459C265.512 124.76 268.275 126.452 270.75 128.219C273.225 129.986 277.5 132.935 280.25 134.772C283 136.61 286.263 138.948 287.5 139.968C288.737 140.988 291.55 143.032 293.75 144.509C295.95 145.987 299.976 148.85 302.695 150.873C305.415 152.896 308.499 154.989 309.55 155.525C310.6 156.061 311.919 156.5 312.48 156.5C313.34 156.5 313.5 156.18 313.5 154.465C313.5 153.347 312.459 149.24 311.188 145.34C309.916 141.441 306.862 132.175 304.401 124.75C301.939 117.325 299.156 108.728 298.217 105.645C296.969 101.548 296.628 99.733 296.952 98.8955C297.195 98.2655 297.924 97.276 298.572 96.6965C299.22 96.117 301.1 94.7085 302.75 93.5665C304.4 92.4245 306.802 90.6485 308.089 89.62C309.375 88.5915 311.85 86.714 313.589 85.4475C315.327 84.1815 318.621 81.8675 320.907 80.305C323.194 78.743 326.172 76.629 327.527 75.6075C328.882 74.586 331.43 72.625 333.189 71.25C334.947 69.875 337.985 67.6705 339.94 66.351C342.343 64.728 343.599 63.5295 343.82 62.648C344.059 61.6965 343.899 61.163 343.228 60.672C342.585 60.202 340.572 59.998 336.53 59.994C333.028 59.9905 329.666 59.6975 328 59.25C325.803 58.6605 321.397 58.5105 306.109 58.506C290.708 58.501 286.635 58.361 285.267 57.7895C284.318 57.393 283.219 56.406 282.78 55.5575C282.347 54.7205 278.158 42.4965 273.47 28.393C268.783 14.2895 264.617 2.2435 264.212 1.625C263.808 1.0065 263.15 0.5 262.75 0.5C262.35 0.5 261.695 1.0065 261.293 1.625ZM442.586 1.7545C442.021 2.473 441.294 4.341 440.97 5.9055C440.646 7.47 439.259 11.7875 437.888 15.5C436.517 19.2125 434.082 26.1875 432.477 31C430.872 35.8125 428.51 43.2375 427.228 47.5C425.947 51.7625 424.45 55.9865 423.901 56.887C423.352 57.7875 422.262 58.8565 421.477 59.262C420.27 59.8865 415.819 60 392.58 60C366.488 60 365.053 60.047 363.956 60.9355C362.839 61.8395 362.829 61.9145 363.655 63.176C364.126 63.894 366.477 65.845 368.88 67.511C371.283 69.177 375.388 72.09 378 73.984C380.612 75.878 384.55 78.7635 386.75 80.3965C388.95 82.029 392.212 84.336 394 85.522C395.788 86.7085 399.162 89.131 401.5 90.9055C403.838 92.68 406.707 95.049 407.875 96.17C409.563 97.789 410 98.5595 410 99.917C410 100.856 408.777 105.267 407.283 109.719C405.788 114.17 404.228 119.261 403.815 121.031C403.403 122.801 400.901 130.753 398.257 138.702C394.943 148.662 393.495 153.714 393.599 154.952C393.725 156.459 393.956 156.774 395.025 156.898C395.878 156.998 397.536 156.24 400.037 154.607C402.093 153.265 404.557 151.491 405.513 150.665C406.468 149.838 409.5 147.635 412.25 145.768C415 143.902 417.7 141.969 418.25 141.474C418.8 140.978 422.625 138.205 426.75 135.312C430.875 132.42 435.651 128.973 437.362 127.652C439.073 126.331 441.358 124.927 442.44 124.531C444.042 123.946 444.779 123.925 446.419 124.417C447.527 124.749 449.629 125.995 451.091 127.186C452.553 128.377 457.125 131.65 461.25 134.46C465.375 137.269 470.438 140.794 472.5 142.292C474.562 143.791 478.356 146.531 480.931 148.383C483.506 150.235 486.98 152.83 488.651 154.15C491.029 156.028 492.022 156.517 493.22 156.4C494.465 156.278 494.779 155.998 494.906 154.898C494.992 154.155 494.373 151.396 493.531 148.768C492.689 146.139 492 143.674 492 143.29C492 142.905 488.963 133.409 485.25 122.186C481.537 110.963 478.5 101.172 478.5 100.428C478.5 99.6835 479.117 98.3435 479.875 97.443C480.631 96.5445 483.858 93.8835 487.045 91.53C490.233 89.176 495.266 85.45 498.23 83.25C501.195 81.05 505.591 77.9 508 76.25C510.409 74.6 513.589 72.306 515.065 71.1525C516.542 69.9985 519.206 67.9735 520.984 66.6525C522.763 65.331 524.559 63.639 524.977 62.8925C525.594 61.7875 525.616 61.416 525.094 60.8925C524.65 60.448 522.03 60.1705 516.601 59.9915C512.283 59.8495 508.412 59.512 508 59.2415C507.557 58.951 499.019 58.6475 487.134 58.5L467.017 58.25L465.534 56.75C464.298 55.5 462.93 51.872 457.332 35C453.637 23.8625 450.152 13.6955 449.588 12.407C449.024 11.118 448.291 8.685 447.96 7C447.628 5.315 446.876 3.221 446.286 2.3465C445.697 1.4725 444.855 0.687501 444.414 0.602501C443.974 0.518001 443.151 1.036 442.586 1.7545ZM624.349 1.891C623.905 2.381 622.874 4.687 622.057 7.016C621.24 9.3445 617.262 21.309 613.218 33.604C609.174 45.8985 605.445 56.648 604.932 57.4915C604.419 58.335 603.422 59.2445 602.717 59.5125C601.941 59.8075 590.634 60 574.063 60C551.929 60 546.515 60.1285 545.772 60.672C545.101 61.163 544.941 61.6965 545.18 62.648C545.401 63.5295 546.657 64.728 549.06 66.351C551.015 67.6705 554.053 69.875 555.812 71.25C557.571 72.625 560.149 74.61 561.542 75.6615C562.935 76.713 566.241 79.063 568.889 80.884C571.537 82.705 575.108 85.22 576.824 86.4725C578.539 87.725 582.117 90.325 584.774 92.25C587.431 94.175 590.167 96.4125 590.852 97.2225C591.837 98.385 592.04 99.0555 591.821 100.409C591.668 101.352 589.517 108.339 587.042 115.937C584.567 123.534 581.722 132.562 580.72 136C579.717 139.438 578.151 144.412 577.24 147.055C576.328 149.698 575.426 152.902 575.235 154.174C574.953 156.055 575.039 156.547 575.695 156.798C576.139 156.969 577.028 156.976 577.67 156.814C578.313 156.653 580.506 155.392 582.544 154.012C584.582 152.632 587.176 150.771 588.307 149.876C589.438 148.982 593.221 146.225 596.713 143.75C600.205 141.275 604.217 138.366 605.63 137.285C607.042 136.205 609.897 134.2 611.974 132.83C614.05 131.46 617.287 129.141 619.166 127.678C621.044 126.214 623.447 124.784 624.505 124.499C625.952 124.109 626.917 124.149 628.396 124.658C629.478 125.031 631.687 126.344 633.306 127.577C634.926 128.81 638.138 131.117 640.446 132.704C642.755 134.291 645.708 136.413 647.01 137.42C648.311 138.426 651.26 140.546 653.563 142.13C655.866 143.713 660.368 146.863 663.567 149.13C666.766 151.396 670.343 153.982 671.516 154.875C672.769 155.829 674.239 156.5 675.075 156.5C676.402 156.5 676.5 156.364 676.5 154.523C676.5 153.435 675.476 149.216 674.224 145.148C672.972 141.079 671.255 135.5 670.408 132.75C669.561 130 666.872 121.719 664.433 114.348C661.995 106.976 660 100.459 660 99.866C660 99.209 661.058 97.787 662.705 96.23C664.192 94.8235 668.748 91.2685 672.83 88.3305C676.911 85.392 682.162 81.596 684.5 79.895C686.838 78.1935 690.775 75.304 693.25 73.4735C695.725 71.643 698.745 69.523 699.961 68.762C701.178 68.001 703.259 66.3625 704.586 65.1205C705.914 63.879 707 62.4385 707 61.919C707 61.366 706.469 60.7735 705.718 60.4875C705.012 60.2195 701.806 59.992 698.593 59.982C695.27 59.972 691.457 59.652 689.75 59.24C687.418 58.677 682.714 58.514 668.609 58.508C654.057 58.5015 650.13 58.359 648.763 57.788C647.665 57.329 646.711 56.3945 646.082 55.1605C645.544 54.107 643.968 49.82 642.577 45.6335C641.187 41.447 639.563 36.3855 638.968 34.386C638.374 32.386 637.492 29.9625 637.009 29C636.526 28.0375 634.271 21.7375 631.998 15C629.726 8.2625 627.524 2.356 627.106 1.875C626.688 1.394 626.077 1 625.75 1C625.423 1 624.792 1.401 624.349 1.891ZM79.12 2.875C78.5985 3.6315 76.8605 8.3 75.2575 13.25C73.655 18.2 69.8135 29.8725 66.7215 39.1895C63.629 48.506 60.6615 56.7185 60.1265 57.4395C59.5915 58.16 58.613 59.028 57.952 59.3675C57.042 59.835 50.165 59.987 29.6575 59.9925C13.2835 59.997 2.0575 60.193 1.2825 60.4875C0.514 60.78 0 61.364 0 61.945C0 62.4785 0.984 63.778 2.187 64.8325C3.3895 65.887 6.371 68.0875 8.812 69.7225C11.253 71.3575 14.3075 73.563 15.5995 74.623C16.892 75.683 19.7045 77.6925 21.8495 79.0885C23.995 80.484 26.9875 82.5995 28.5 83.789C30.0125 84.9785 32.795 87.0985 34.6835 88.5C36.572 89.902 39.763 92.1595 41.775 93.517C43.787 94.8745 45.7855 96.4885 46.2165 97.104C46.6475 97.719 47 99.026 47 100.007C47 100.989 44.082 110.605 40.5155 121.376C36.949 132.147 33.6935 142.417 33.2805 144.197C32.8675 145.977 31.9605 149.063 31.265 151.054C30.569 153.045 30 155.058 30 155.526C30 155.995 30.3265 156.648 30.726 156.98C31.1255 157.311 31.8995 157.44 32.446 157.267C32.993 157.093 35.76 155.291 38.595 153.262C41.4305 151.232 45.325 148.432 47.25 147.04C49.175 145.648 53.5625 142.497 57 140.038C60.4375 137.58 64.6 134.562 66.25 133.331C67.9 132.101 71.4715 129.623 74.1865 127.824C76.9015 126.025 79.731 124.419 80.4745 124.255C81.218 124.092 82.447 124.195 83.2055 124.483C83.964 124.772 86.3095 126.207 88.4175 127.674C90.5255 129.141 94.5 131.936 97.25 133.885C100 135.833 103.825 138.592 105.75 140.013C107.675 141.435 111.275 144.028 113.75 145.775C116.225 147.522 120.565 150.535 123.395 152.471C126.225 154.407 129.081 156.126 129.742 156.292C130.403 156.458 131.181 156.447 131.471 156.268C131.762 156.088 132 155.301 132 154.52C132 153.739 129.849 146.609 127.221 138.675C124.593 130.741 122.103 122.801 121.689 121.031C121.274 119.261 119.712 114.17 118.217 109.719C116.723 105.267 115.5 100.854 115.5 99.911C115.5 98.621 115.903 97.8195 117.125 96.6775C118.018 95.842 119.538 94.6305 120.5 93.9855C121.462 93.34 123.516 91.7855 125.064 90.531C126.611 89.2765 130.733 86.225 134.223 83.75C137.714 81.275 143.281 77.225 146.596 74.75C149.911 72.275 154.506 68.9515 156.807 67.364C159.108 65.777 161.336 63.9525 161.757 63.3095C162.178 62.667 162.39 61.794 162.227 61.3695C162.064 60.9455 161.44 60.467 160.84 60.306C160.24 60.1455 157.275 60.008 154.25 60.001C151.017 59.9935 147.617 59.684 146 59.25C143.808 58.6615 139.396 58.509 124.25 58.4985C110.175 58.4885 104.938 58.325 104.048 57.8675C103.387 57.528 102.43 56.6875 101.922 56C101.414 55.3125 100.291 52.8375 99.427 50.5C98.5625 48.1625 94.682 36.788 90.803 25.223C86.9235 13.658 83.351 3.589 82.8635 2.848C82.376 2.1065 81.5475 1.5 81.0225 1.5C80.4975 1.5 79.6415 2.1185 79.12 2.875Z" fill="#906D52"/>
</svg>
