<svg width="332" height="170" viewBox="0 0 332 170" fill="none" xmlns="http://www.w3.org/2000/svg">
<path d="M168.5 4H294.5V167.5H168.5C139.942 167.845 127.349 163.982 112.5 148C100.183 157.97 91.4431 165.906 69 167.5C46.5569 169.094 3.00003 147.5 3 84.5C2.99997 21.5 45.5 4 69 4C92.2904 4 96.8218 7.92389 112.085 21.141L112.5 21.5C128.786 5.55913 141 4 168.5 4Z" stroke="#8C8C8C" stroke-width="3"/>
<path d="M117.5 68.5H22C27.3523 37.0249 45.8203 21.8581 70.5 22.5C95.1797 23.142 107.664 37.258 117.5 68.5Z" fill="#8C8C8C" stroke="#8C8C8C" stroke-width="3"/>
<path d="M117.5 101.48H22C27.3523 132.956 45.8203 148.122 70.5 147.48C95.1797 146.839 107.664 132.722 117.5 101.48Z" fill="#8C8C8C" stroke="#8C8C8C" stroke-width="3"/>
<path d="M123 37.0001C129.472 45.7749 132.325 52.0727 134.5 68.5001H201.5C197.169 37.4014 170.702 21.1306 154.5 22.5001C138.298 23.8696 133.415 26.7587 123 37.0001Z" fill="#8C8C8C" stroke="#8C8C8C" stroke-width="3"/>
<path d="M123 132.5C129.472 123.725 132.325 117.427 134.5 101H201.5C197.169 132.099 170.702 148.369 154.5 147C138.298 145.63 133.415 142.741 123 132.5Z" fill="#8C8C8C" stroke="#8C8C8C" stroke-width="3"/>
<path d="M198.5 23C210.83 38.6599 215.686 49.2897 219.5 68.5H278V23H198.5Z" stroke="#8C8C8C" stroke-width="3"/>
<path d="M198.5 146.5C210.83 130.84 215.686 120.21 219.5 101H278V146.5H198.5Z" stroke="#8C8C8C" stroke-width="3"/>
<path d="M18.123 93V78.6836H20.4863V93H18.123ZM22.791 93V78.6836H25.0957L29.9004 88.2441V78.6836H32.1074V93H29.7246L24.998 83.6641V93H22.791ZM34.002 88.3418L36.3164 88.0684C36.5768 89.8978 37.4297 90.8125 38.875 90.8125C39.5911 90.8125 40.1543 90.627 40.5645 90.2559C40.9746 89.8783 41.1797 89.4128 41.1797 88.8594C41.1797 88.5339 41.1081 88.2572 40.9648 88.0293C40.8216 87.8014 40.6035 87.6159 40.3105 87.4727C40.0176 87.3229 39.3079 87.0755 38.1816 86.7305C37.1725 86.4245 36.4336 86.0924 35.9648 85.7344C35.4961 85.3763 35.1217 84.9076 34.8418 84.3281C34.5684 83.7422 34.4316 83.1139 34.4316 82.4434C34.4316 81.6621 34.6074 80.959 34.959 80.334C35.3171 79.709 35.8086 79.237 36.4336 78.918C37.0586 78.599 37.8301 78.4395 38.748 78.4395C40.1283 78.4395 41.2057 78.8138 41.9805 79.5625C42.7552 80.3112 43.1654 81.3822 43.2109 82.7754L40.8379 82.9023C40.7337 82.1341 40.5091 81.597 40.1641 81.291C39.819 80.985 39.3275 80.832 38.6895 80.832C38.0514 80.832 37.5599 80.9655 37.2148 81.2324C36.8698 81.4993 36.6973 81.8314 36.6973 82.2285C36.6973 82.6191 36.8535 82.9479 37.166 83.2148C37.4785 83.4818 38.1979 83.7747 39.3242 84.0938C40.5156 84.4388 41.375 84.8034 41.9023 85.1875C42.4362 85.5651 42.8431 86.0566 43.123 86.6621C43.403 87.2611 43.543 87.9902 43.543 88.8496C43.543 90.0931 43.1589 91.138 42.3906 91.9844C41.6289 92.8307 40.4342 93.2539 38.8066 93.2539C35.929 93.2539 34.3275 91.6165 34.002 88.3418ZM48.1816 93V81.1055H44.6953V78.6836H54.0215V81.1055H50.5449V93H48.1816ZM55.4863 93V78.6836H57.8496V93H55.4863ZM62.7715 93V81.1055H59.2852V78.6836H68.6113V81.1055H65.1348V93H62.7715ZM70.125 78.6836H72.4883V86.4375C72.4883 87.6419 72.5176 88.4264 72.5762 88.791C72.6803 89.4225 72.9277 89.9108 73.3184 90.2559C73.7155 90.6009 74.2363 90.7734 74.8809 90.7734C75.4277 90.7734 75.8737 90.653 76.2188 90.4121C76.5638 90.1647 76.7982 89.8262 76.9219 89.3965C77.0521 88.9603 77.1172 88.0293 77.1172 86.6035V78.6836H79.4902V86.2031C79.4902 88.1237 79.3861 89.5137 79.1777 90.373C78.9759 91.2259 78.5137 91.9193 77.791 92.4531C77.0749 92.9805 76.1276 93.2441 74.9492 93.2441C73.7253 93.2441 72.7682 93.026 72.0781 92.5898C71.3945 92.1471 70.8965 91.5286 70.584 90.7344C70.278 89.9336 70.125 88.4622 70.125 86.3203V78.6836ZM84.627 93V81.1055H81.1406V78.6836H90.4668V81.1055H86.9902V93H84.627ZM92.0098 93V78.6836H100.721V81.1055H94.373V84.2793H100.271V86.6914H94.373V90.5879H100.936V93H92.0098ZM107.039 85.9297C107.039 84.224 107.29 82.821 107.791 81.7207C108.299 80.6139 108.96 79.7904 109.773 79.25C110.587 78.7096 111.574 78.4395 112.732 78.4395C114.412 78.4395 115.779 79.0807 116.834 80.3633C117.895 81.6458 118.426 83.472 118.426 85.8418C118.426 88.2376 117.866 90.1094 116.746 91.457C115.763 92.6484 114.428 93.2441 112.742 93.2441C111.043 93.2441 109.702 92.6549 108.719 91.4766C107.599 90.1289 107.039 88.2799 107.039 85.9297ZM109.48 85.832C109.48 87.4792 109.793 88.7161 110.418 89.543C111.043 90.3633 111.818 90.7734 112.742 90.7734C113.673 90.7734 114.445 90.3665 115.057 89.5527C115.669 88.7324 115.975 87.4759 115.975 85.7832C115.975 84.123 115.675 82.8958 115.076 82.1016C114.484 81.3073 113.706 80.9102 112.742 80.9102C111.779 80.9102 110.994 81.3105 110.389 82.1113C109.783 82.9121 109.48 84.1523 109.48 85.832ZM120.301 93V78.6836H128.348V81.1055H122.664V84.4941H127.576V86.916H122.664V93H120.301ZM137.518 93V81.1055H134.031V78.6836H143.357V81.1055H139.881V93H137.518ZM144.129 85.9297C144.129 84.224 144.38 82.821 144.881 81.7207C145.389 80.6139 146.049 79.7904 146.863 79.25C147.677 78.7096 148.663 78.4395 149.822 78.4395C151.502 78.4395 152.869 79.0807 153.924 80.3633C154.985 81.6458 155.516 83.472 155.516 85.8418C155.516 88.2376 154.956 90.1094 153.836 91.457C152.853 92.6484 151.518 93.2441 149.832 93.2441C148.133 93.2441 146.792 92.6549 145.809 91.4766C144.689 90.1289 144.129 88.2799 144.129 85.9297ZM146.57 85.832C146.57 87.4792 146.883 88.7161 147.508 89.543C148.133 90.3633 148.908 90.7734 149.832 90.7734C150.763 90.7734 151.535 90.3665 152.146 89.5527C152.758 88.7324 153.064 87.4759 153.064 85.7832C153.064 84.123 152.765 82.8958 152.166 82.1016C151.574 81.3073 150.796 80.9102 149.832 80.9102C148.868 80.9102 148.084 81.3105 147.479 82.1113C146.873 82.9121 146.57 84.1523 146.57 85.832ZM157.352 78.6836H159.715V86.4375C159.715 87.6419 159.744 88.4264 159.803 88.791C159.907 89.4225 160.154 89.9108 160.545 90.2559C160.942 90.6009 161.463 90.7734 162.107 90.7734C162.654 90.7734 163.1 90.653 163.445 90.4121C163.79 90.1647 164.025 89.8262 164.148 89.3965C164.279 88.9603 164.344 88.0293 164.344 86.6035V78.6836H166.717V86.2031C166.717 88.1237 166.613 89.5137 166.404 90.373C166.202 91.2259 165.74 91.9193 165.018 92.4531C164.301 92.9805 163.354 93.2441 162.176 93.2441C160.952 93.2441 159.995 93.026 159.305 92.5898C158.621 92.1471 158.123 91.5286 157.811 90.7344C157.505 89.9336 157.352 88.4622 157.352 86.3203V78.6836ZM169.217 93V78.6836H174.207C175.483 78.6836 176.395 78.8138 176.941 79.0742C177.488 79.3281 177.938 79.7741 178.289 80.4121C178.641 81.0436 178.816 81.8021 178.816 82.6875C178.816 83.8073 178.546 84.709 178.006 85.3926C177.472 86.0762 176.71 86.5059 175.721 86.6816C176.229 87.0462 176.648 87.4466 176.98 87.8828C177.312 88.3125 177.765 89.0872 178.338 90.207L179.764 93H176.941L175.223 89.8848C174.604 88.7585 174.184 88.0553 173.963 87.7754C173.742 87.4889 173.507 87.2936 173.26 87.1895C173.012 87.0788 172.615 87.0234 172.068 87.0234H171.58V93H169.217ZM171.58 84.7383H173.338C174.412 84.7383 175.096 84.6927 175.389 84.6016C175.682 84.5039 175.919 84.3118 176.102 84.0254C176.284 83.7389 176.375 83.3581 176.375 82.8828C176.375 82.4271 176.284 82.0625 176.102 81.7891C175.919 81.5091 175.672 81.3171 175.359 81.2129C175.138 81.1413 174.497 81.1055 173.436 81.1055H171.58V84.7383ZM180.975 93V78.6836H183.338V93H180.975ZM185.018 88.3418L187.332 88.0684C187.592 89.8978 188.445 90.8125 189.891 90.8125C190.607 90.8125 191.17 90.627 191.58 90.2559C191.99 89.8783 192.195 89.4128 192.195 88.8594C192.195 88.5339 192.124 88.2572 191.98 88.0293C191.837 87.8014 191.619 87.6159 191.326 87.4727C191.033 87.3229 190.324 87.0755 189.197 86.7305C188.188 86.4245 187.449 86.0924 186.98 85.7344C186.512 85.3763 186.137 84.9076 185.857 84.3281C185.584 83.7422 185.447 83.1139 185.447 82.4434C185.447 81.6621 185.623 80.959 185.975 80.334C186.333 79.709 186.824 79.237 187.449 78.918C188.074 78.599 188.846 78.4395 189.764 78.4395C191.144 78.4395 192.221 78.8138 192.996 79.5625C193.771 80.3112 194.181 81.3822 194.227 82.7754L191.854 82.9023C191.749 82.1341 191.525 81.597 191.18 81.291C190.835 80.985 190.343 80.832 189.705 80.832C189.067 80.832 188.576 80.9655 188.23 81.2324C187.885 81.4993 187.713 81.8314 187.713 82.2285C187.713 82.6191 187.869 82.9479 188.182 83.2148C188.494 83.4818 189.214 83.7747 190.34 84.0938C191.531 84.4388 192.391 84.8034 192.918 85.1875C193.452 85.5651 193.859 86.0566 194.139 86.6621C194.419 87.2611 194.559 87.9902 194.559 88.8496C194.559 90.0931 194.174 91.138 193.406 91.9844C192.645 92.8307 191.45 93.2539 189.822 93.2539C186.945 93.2539 185.343 91.6165 185.018 88.3418ZM199.197 93V81.1055H195.711V78.6836H205.037V81.1055H201.561V93H199.197ZM216.609 87.7363V85.3242H221.717V91.0273C221.202 91.6328 220.473 92.1536 219.529 92.5898C218.585 93.026 217.638 93.2441 216.688 93.2441C215.529 93.2441 214.507 92.9609 213.621 92.3945C212.736 91.8216 212.033 90.9688 211.512 89.8359C210.997 88.6966 210.74 87.3587 210.74 85.8223C210.74 84.2467 211.001 82.8991 211.521 81.7793C212.049 80.6595 212.729 79.8229 213.562 79.2695C214.402 78.7161 215.405 78.4395 216.57 78.4395C217.97 78.4395 219.09 78.7975 219.93 79.5137C220.776 80.2233 221.32 81.2682 221.561 82.6484L219.217 83.1855C219.041 82.4499 218.719 81.8867 218.25 81.4961C217.781 81.1055 217.221 80.9102 216.57 80.9102C215.561 80.9102 214.744 81.304 214.119 82.0918C213.494 82.873 213.182 84.0677 213.182 85.6758C213.182 87.401 213.52 88.7129 214.197 89.6113C214.777 90.3861 215.561 90.7734 216.551 90.7734C217.013 90.7734 217.492 90.666 217.986 90.4512C218.488 90.2298 218.934 89.9303 219.324 89.5527V87.7363H216.609ZM223.895 78.6836H226.258V86.4375C226.258 87.6419 226.287 88.4264 226.346 88.791C226.45 89.4225 226.697 89.9108 227.088 90.2559C227.485 90.6009 228.006 90.7734 228.65 90.7734C229.197 90.7734 229.643 90.653 229.988 90.4121C230.333 90.1647 230.568 89.8262 230.691 89.3965C230.822 88.9603 230.887 88.0293 230.887 86.6035V78.6836H233.26V86.2031C233.26 88.1237 233.156 89.5137 232.947 90.373C232.745 91.2259 232.283 91.9193 231.561 92.4531C230.844 92.9805 229.897 93.2441 228.719 93.2441C227.495 93.2441 226.538 93.026 225.848 92.5898C225.164 92.1471 224.666 91.5286 224.354 90.7344C224.048 89.9336 223.895 88.4622 223.895 86.3203V78.6836ZM235.682 93V78.6836H238.045V93H235.682ZM240.311 78.6836H244.637C245.73 78.6836 246.554 78.8073 247.107 79.0547C247.667 79.2956 248.182 79.7057 248.65 80.2852C249.119 80.8646 249.487 81.6165 249.754 82.541C250.021 83.4655 250.154 84.6146 250.154 85.9883C250.154 87.2253 250.014 88.3027 249.734 89.2207C249.454 90.1322 249.1 90.8548 248.67 91.3887C248.24 91.9225 247.719 92.3262 247.107 92.5996C246.502 92.8665 245.721 93 244.764 93H240.311V78.6836ZM242.674 81.1055V90.5879H244.451C245.213 90.5879 245.763 90.5163 246.102 90.373C246.447 90.2298 246.727 90.015 246.941 89.7285C247.163 89.4355 247.345 88.9766 247.488 88.3516C247.632 87.7266 247.703 86.903 247.703 85.8809C247.703 84.8197 247.628 83.9831 247.479 83.3711C247.335 82.7591 247.107 82.2773 246.795 81.9258C246.489 81.5742 246.115 81.3431 245.672 81.2324C245.34 81.1478 244.699 81.1055 243.748 81.1055H242.674ZM252.088 93V78.6836H254.451V93H252.088ZM256.756 93V78.6836H259.061L263.865 88.2441V78.6836H266.072V93H263.689L258.963 83.6641V93H256.756ZM274.031 87.7363V85.3242H279.139V91.0273C278.624 91.6328 277.895 92.1536 276.951 92.5898C276.007 93.026 275.06 93.2441 274.109 93.2441C272.951 93.2441 271.928 92.9609 271.043 92.3945C270.158 91.8216 269.454 90.9688 268.934 89.8359C268.419 88.6966 268.162 87.3587 268.162 85.8223C268.162 84.2467 268.423 82.8991 268.943 81.7793C269.471 80.6595 270.151 79.8229 270.984 79.2695C271.824 78.7161 272.827 78.4395 273.992 78.4395C275.392 78.4395 276.512 78.7975 277.352 79.5137C278.198 80.2233 278.742 81.2682 278.982 82.6484L276.639 83.1855C276.463 82.4499 276.141 81.8867 275.672 81.4961C275.203 81.1055 274.643 80.9102 273.992 80.9102C272.983 80.9102 272.166 81.304 271.541 82.0918C270.916 82.873 270.604 84.0677 270.604 85.6758C270.604 87.401 270.942 88.7129 271.619 89.6113C272.199 90.3861 272.983 90.7734 273.973 90.7734C274.435 90.7734 274.913 90.666 275.408 90.4512C275.91 90.2298 276.355 89.9303 276.746 89.5527V87.7363H274.031Z" fill="#8C8C8C"/>
</svg>
