<svg width="609" height="310" viewBox="0 0 609 310" fill="none" xmlns="http://www.w3.org/2000/svg">
<path fill-rule="evenodd" clip-rule="evenodd" d="M292.322 0.207929C268.002 1.38043 242.712 8.67492 224.003 19.9139L219.933 22.3584H201.128C190.785 22.3584 182.322 22.5084 182.322 22.6914C182.322 22.8744 183.309 24.6184 184.515 26.5664C187.644 31.6199 191.173 38.7459 192.546 42.7814L193.725 46.2479L192.084 48.5569C188.114 54.1404 184.881 61.6979 183.185 69.3584C181.72 75.9779 181.725 87.1334 183.197 93.8584C188.502 118.098 207.652 136.506 231.785 140.565C244.241 142.661 256.581 140.803 268.072 135.102C274.644 131.841 279.244 128.495 284.371 123.247C286.461 121.108 288.289 119.358 288.435 119.358C288.58 119.358 291.482 123.407 294.885 128.356C298.288 133.305 301.185 137.35 301.322 137.345C301.46 137.34 304.375 133.102 307.8 127.928L314.028 118.521L318.55 123.086C326.922 131.536 334.825 135.979 347.252 139.22C352.113 140.488 353.328 140.606 361.322 140.586C368.552 140.568 370.817 140.378 374.356 139.492C398.546 133.439 415.978 114.745 420.145 90.3894C420.748 86.8639 420.885 83.8289 420.687 78.3894C420.258 66.6514 418.229 60.5614 410.951 49.1784L408.758 45.7484L409.772 42.4284C411.122 38.0049 414.249 31.6414 417.593 26.5109C419.094 24.2079 420.322 22.2194 420.322 22.0914C420.322 21.9634 411.399 21.8584 400.494 21.8584H380.665L375.619 18.9149C352.16 5.23243 323.167 -1.27907 292.322 0.207929ZM318.072 11.3689C327.73 12.2639 336.608 13.9789 344.322 16.4394C349.444 18.0729 357.914 21.4334 357.628 21.7189C357.486 21.8614 355.42 22.1754 353.038 22.4169C348.259 22.9014 340.227 25.3764 334.496 28.1304C317.98 36.0679 305.632 52.4194 302.061 71.0834C301.645 73.2614 301.227 75.1204 301.133 75.2139C301.04 75.3079 300.814 74.1204 300.633 72.5759C300.159 68.5459 298.638 63.1869 296.588 58.3259C288.359 38.8129 269.922 25.0014 248.657 22.4204C246.504 22.1594 244.653 21.8559 244.543 21.7464C244.262 21.4649 253.521 18.0874 258.717 16.5754C267.196 14.1084 279.032 12.1059 290.572 11.1859C295.53 10.7909 313.093 10.9074 318.072 11.3689ZM49.7941 188.7C31.6901 192.017 15.2686 204.285 6.65813 220.927C1.71963 230.471 -0.0158905 237.645 0.000109481 248.446C0.0156095 259.278 1.90462 267.51 6.39162 276.304C21.5921 306.093 58.2501 318.022 87.8226 302.801C104.489 294.223 116.184 278.508 119.9 259.696C120.931 254.478 120.93 243.065 119.898 237.696C116.671 220.897 107.904 207.5 94.0411 198.181C86.3601 193.018 79.5516 190.275 70.4296 188.67C65.4421 187.792 54.6651 187.808 49.7941 188.7ZM542.833 188.524C528.51 189.78 516.223 195.445 505.642 205.672C497.162 213.869 491.554 223.933 488.495 236.446C487.469 240.639 487.59 256.652 488.683 261.446C490.52 269.505 493.161 275.639 497.846 282.726C510.863 302.42 535.309 312.783 558.601 308.481C571.476 306.103 582.021 300.582 591.077 291.477C599.646 282.861 604.512 273.899 607.655 260.946C608.102 259.105 608.303 255.138 608.264 248.946C608.213 240.764 608.061 239.147 606.947 234.946C602.719 219.002 594.467 207.105 581.772 198.651C573.55 193.175 563.207 189.391 554.572 188.7C552.51 188.535 550.147 188.329 549.322 188.243C548.497 188.157 545.577 188.283 542.833 188.524ZM173.402 188.959C160.137 191.057 148.575 197.005 139.2 206.553C131.307 214.592 126.651 222.863 123.501 234.446C122.481 238.198 122.344 239.839 122.334 248.446C122.323 258.282 122.522 259.898 124.581 266.696C134.238 298.568 168.432 316.58 200.323 306.594C220.253 300.352 235.667 284.037 241.089 263.446C242.061 259.756 243.055 252.421 243.055 248.946C243.054 245.102 241.927 236.898 240.828 232.749C237.387 219.75 227.65 206.215 216.372 198.755C209.589 194.267 204.107 191.917 195.073 189.623C191.693 188.764 177.401 188.327 173.402 188.959ZM296.823 188.783C290.42 189.582 283.384 191.752 277.352 194.788C271.035 197.968 267.502 200.493 262.215 205.605C254.306 213.251 248.591 223.022 245.723 233.799C243.979 240.353 243.544 252.425 244.806 259.219C251.947 297.656 291.162 319.313 327.327 304.792C341.939 298.925 354.705 286.049 360.601 271.229C362.579 266.257 364.557 258.403 364.574 255.446C364.601 251.108 365.372 251.973 366.032 257.08C367.724 270.177 373.935 282.488 383.713 292.126C410.508 318.538 454.404 314.13 476.284 282.83C487.552 266.711 489.623 243.965 481.556 224.946C473.376 205.659 455.026 191.687 434.213 188.899C427.597 188.013 416.977 188.6 411.072 190.18C399.884 193.172 391.925 197.667 383.642 205.672C374.075 214.92 367.879 227.002 366.067 239.946C365.261 245.704 364.651 247.059 364.603 243.196C364.543 238.443 362.077 229.29 359.079 222.696C356.921 217.947 351.402 210.24 347.089 205.95C337.983 196.894 325.656 190.693 313.356 188.982C309.742 188.479 300.177 188.364 296.823 188.783ZM71.6221 200.916C89.9461 205.547 103.919 219.888 107.889 238.139C108.856 242.584 109.01 254.17 108.153 257.946C107.031 262.887 106.431 264.633 104.286 269.196C96.2711 286.245 79.3016 296.947 60.3226 296.92C44.1621 296.898 30.2701 289.747 20.4656 276.405C17.2441 272.02 14.0761 264.669 12.5106 257.946C11.6641 254.309 11.6591 241.981 12.5026 238.446C15.0496 227.773 19.5431 219.87 27.1121 212.75C34.5811 205.723 44.5891 201.073 55.0726 199.757C58.5521 199.32 67.8961 199.975 71.6221 200.916ZM192.605 200.653C204.245 203.388 214.412 209.926 221.054 218.946C223.603 222.407 226.88 228.128 227.588 230.35C227.823 231.09 228.385 232.708 228.837 233.946C230.022 237.193 231.055 244.068 231.055 248.696C231.053 264.404 222.613 279.94 209.341 288.666C204.263 292.005 201.042 293.495 195.073 295.265C190.729 296.553 189.639 296.673 182.323 296.673C175.072 296.673 173.894 296.546 169.739 295.313C158.547 291.99 149.773 285.967 143.344 277.196C132.223 262.023 130.561 242.929 138.91 226.251C144.533 215.018 154.606 206.299 166.573 202.307C169.843 201.216 171.816 200.755 177.573 199.735C179.956 199.313 189.339 199.886 192.605 200.653ZM316.322 201.203C319.072 201.936 321.547 202.705 321.822 202.912C322.097 203.118 323.259 203.651 324.404 204.095C330.401 206.422 338.614 213.122 343.529 219.696C353.183 232.608 355.762 251.283 349.882 265.696C342.405 284.023 326.16 295.816 307.073 296.772C293.217 297.466 281.315 293.144 271.229 283.755C264.002 277.028 258.807 267.878 256.802 258.346C255.658 252.907 255.828 241.871 257.138 236.535C261.056 220.578 273.093 207.471 288.573 202.307C291.843 201.216 293.816 200.755 299.573 199.735C302.828 199.158 311.503 199.918 316.322 201.203ZM559.697 201.206C577.209 205.622 590.499 218.945 595.098 236.696C596.05 240.374 596.267 242.52 596.284 248.446C596.31 257.412 595.449 261.45 591.849 269.242C588.406 276.692 581.944 284.096 574.844 288.724C569.758 292.04 566.619 293.472 560.464 295.287C556.282 296.52 555.054 296.656 548.072 296.656C541.064 296.656 539.871 296.523 535.614 295.268C529.486 293.461 525.622 291.681 520.77 288.427C512.868 283.127 505.821 274.332 502.556 265.696C498.036 253.74 498.643 238.297 504.062 227.379C511.737 211.916 525.025 202.368 542.247 199.941C546.855 199.292 554.221 199.826 559.697 201.206ZM431.618 200.484C449.533 202.776 464.147 213.681 471.015 229.885C473.659 236.121 474.273 239.649 474.289 248.696C474.304 256.564 474.202 257.544 472.914 261.876C467.484 280.142 453.366 293.139 435.072 296.713C430.25 297.655 421.3 297.652 416.822 296.706C401.648 293.501 389.085 283.882 382.2 270.196C376.702 259.266 375.78 244.68 379.832 232.744C385.513 216.011 400.945 203.32 418.78 200.716C424.627 199.863 426.499 199.829 431.618 200.484ZM253.822 34.8504C262.247 37.0174 269.649 41.2994 275.832 47.5834C282.078 53.9314 286.102 60.8964 288.412 69.3584C289.406 73.0004 289.566 74.7174 289.529 81.3584C289.49 88.2844 289.341 89.5844 288.127 93.5829C283.199 109.818 271.485 121.803 255.322 127.145C251.335 128.463 250.531 128.552 242.322 128.578C232.179 128.61 228.851 127.912 221.072 124.118C211.785 119.589 204.367 112.171 199.561 102.608C196.038 95.5974 194.82 90.8604 194.482 82.8584C193.92 69.5129 198.138 58.3859 207.49 48.5424C215.093 40.5404 224.52 35.4939 234.98 33.8284C239.444 33.1174 249.126 33.6424 253.822 34.8504ZM372.633 35.1089C381.832 37.4379 389.098 41.6799 395.877 48.6799C401.93 54.9299 405.432 61.1919 407.443 69.3584C408.855 75.0924 408.941 85.3759 407.624 91.1084C403.495 109.084 390.291 123.21 373.469 127.648C367.851 129.129 362.108 129.572 356.678 128.94C335.566 126.486 319.501 112.264 314.509 91.6084C313.201 86.1919 313.331 76.3134 314.787 70.6419C318.582 55.8514 326.946 45.3014 340.072 38.7464C347.096 35.2384 352.749 33.9524 361.383 33.8979C366.557 33.8654 368.584 34.0839 372.633 35.1089ZM176.823 213.675C168.762 215.147 163.805 217.727 158.032 223.451C154.593 226.86 153.325 228.549 151.65 231.951C148.753 237.835 147.967 241.171 147.998 247.446C148.027 253.48 148.803 257.304 150.959 262.039C155.114 271.164 161.575 277.016 171.573 280.709C175.008 281.978 175.91 282.094 182.323 282.094C188.737 282.094 189.637 281.978 193.073 280.708C197.674 279.008 200.504 277.475 204.021 274.78C209.231 270.786 214.018 263.449 215.937 256.516C216.909 253.003 217.013 243.734 216.123 239.946C214.894 234.719 211.348 228.239 207.499 224.186C201.839 218.228 196.395 215.32 187.831 213.682C183.306 212.816 181.533 212.815 176.823 213.675ZM53.0726 214.988C43.9416 217.347 37.2601 221.745 32.3576 228.625C24.6581 239.428 23.6516 251.851 29.4546 264.446C30.8266 267.423 35.5056 273.307 38.2196 275.468C41.7271 278.261 46.1171 280.638 50.3226 282.022C53.3136 283.006 54.8041 283.167 60.5726 283.134C66.4766 283.099 67.7806 282.933 70.9761 281.81C81.1941 278.219 88.4446 271.431 92.3266 261.821C96.1941 252.248 95.7216 242.276 90.9476 232.696C87.5751 225.928 79.0476 218.426 72.3671 216.35C66.3596 214.483 57.4606 213.854 53.0726 214.988ZM297.323 214.987C286.836 217.295 278.132 223.974 273.592 233.196C270.65 239.172 270.339 240.628 270.33 248.446C270.322 256.476 270.766 258.748 273.364 263.982C277.598 272.509 284.569 278.626 293.669 281.8C296.843 282.907 298.208 283.081 304.073 283.125C311.195 283.178 314.635 282.459 319.787 279.84C333.744 272.744 341.316 257.621 338.383 242.696C336.846 234.87 333.553 228.889 327.863 223.589C321.051 217.243 313.812 214.452 304.323 214.514C301.573 214.532 298.423 214.744 297.323 214.987ZM418.072 215.165C405.886 217.898 395.995 227.475 392.562 239.863C391.074 245.232 391.18 253.366 392.807 258.67C395.739 268.225 402.697 276.192 411.771 280.382C416.481 282.557 419.717 283.176 426.322 283.163C432.611 283.151 436.451 282.298 441.287 279.84C460.19 270.229 466.358 246.82 454.567 229.44C450.062 222.8 442.41 217.386 434.768 215.432C430.325 214.296 422.506 214.171 418.072 215.165ZM539.253 215.436C522.707 219.774 511.996 235.144 513.661 252.158C514.439 260.1 517.461 266.798 522.785 272.379C529.025 278.921 535.685 282.221 544.697 283.237L547.572 283.561V249.003V214.446L545.197 214.473C543.891 214.488 541.216 214.922 539.253 215.436ZM237.572 51.3449C225.651 53.2059 216.87 60.4574 213.011 71.6274C210.274 79.5504 211.572 89.4714 216.278 96.6084C228.114 114.556 253.79 114.721 265.507 96.9244C274.203 83.7164 271.428 67.3404 258.776 57.2064C253.352 52.8619 244.15 50.3179 237.572 51.3449ZM355.843 51.6064C347.561 53.1429 339.195 59.1279 335.152 66.4089C332.993 70.2979 331.319 76.3894 331.331 80.3134C331.371 93.2399 340.171 105.117 352.572 108.981C357.801 110.61 364.761 110.494 369.986 108.69C377.486 106.101 383.677 100.838 387.042 94.1904C389.436 89.4619 390.309 85.9694 390.316 81.0984C390.343 62.8534 373.391 48.3509 355.843 51.6064ZM246.356 62.1559C252.98 64.1014 257.659 68.8429 259.592 75.5689C263.069 87.6664 253.796 99.8824 241.149 99.8634C233.122 99.8514 227.238 96.1479 223.665 88.8584C222.197 85.8639 222.072 85.2154 222.072 80.6084C222.072 76.2389 222.24 75.2504 223.402 72.7709C224.887 69.6034 228.051 65.9169 230.676 64.2944C235.119 61.5484 241.381 60.6944 246.356 62.1559ZM366.922 62.3919C372.566 64.2934 376.063 67.5039 378.682 73.1904C380.502 77.1399 380.589 83.6339 378.881 87.9819C377.308 91.9844 373.573 95.9264 369.416 97.9714C366.296 99.5059 365.759 99.6084 360.83 99.6084C356.023 99.6084 355.315 99.4824 352.572 98.1364C348.857 96.3139 345.35 92.7834 343.488 88.9924C342.194 86.3554 342.072 85.6374 342.074 80.6084C342.077 74.1274 342.86 72.0384 346.976 67.5354C352.1 61.9284 359.716 59.9644 366.922 62.3919ZM237.822 71.8919C236.16 72.5884 233.916 74.7579 232.957 76.5954C230.838 80.6559 232.831 86.7984 236.969 88.9579C243.502 92.3679 251.037 87.8919 251.037 80.6009C251.037 77.5864 249.884 75.3704 247.179 73.1839C245.593 71.9024 244.78 71.6304 242.179 71.5109C240.47 71.4324 238.51 71.6039 237.822 71.8919ZM357.322 71.9189C355.702 72.5629 353.43 74.7304 352.492 76.5274C350.437 80.4629 352.429 86.8719 356.324 88.8594C358.936 90.1919 363.487 90.2114 365.639 88.8989C370.543 85.9089 371.765 79.0979 368.208 74.5769C366.102 71.8989 360.694 70.5784 357.322 71.9189Z" fill="#B6B6B6"/>
</svg>
